<svg width="512" height="512" viewBox="0 0 512 512" fill="none" xmlns="http://www.w3.org/2000/svg">
<path d="M176.088 373.952C171.664 373.952 168.088 370.376 168.088 365.952V176.016C168.088 171.592 171.664 168.016 176.088 168.016C180.512 168.016 184.088 171.592 184.088 176.016V365.952C184.088 370.376 180.504 373.952 176.088 373.952Z" fill="#CFD8B9"/>
<path d="M336.056 373.96C331.632 373.96 328.056 370.384 328.056 365.96V176.016C328.056 171.592 331.632 168.016 336.056 168.016C340.48 168.016 344.056 171.592 344.056 176.016V365.96C344.056 370.384 340.48 373.96 336.056 373.96Z" fill="#CFD8B9"/>
<path d="M336.056 184.016H176.088C171.664 184.016 168.088 180.44 168.088 176.016C168.088 171.592 171.664 168.016 176.088 168.016H336.056C340.48 168.016 344.056 171.592 344.056 176.016C344.056 180.44 340.48 184.016 336.056 184.016Z" fill="#CFD8B9"/>
<path d="M216.08 393.992C211.656 393.992 208.08 390.416 208.08 385.992V224.024C208.08 219.6 211.656 216.024 216.08 216.024C220.504 216.024 224.08 219.6 224.08 224.024V385.992C224.08 390.416 220.504 393.992 216.08 393.992Z" fill="#CFD8B9"/>
<path d="M256.072 400C251.648 400 248.072 396.424 248.072 392V224.024C248.072 219.6 251.648 216.024 256.072 216.024C260.496 216.024 264.072 219.6 264.072 224.024V392C264.072 396.424 260.496 400 256.072 400Z" fill="#CFD8B9"/>
<path d="M296.064 393.992C291.64 393.992 288.064 390.416 288.064 385.992V224.024C288.064 219.6 291.64 216.024 296.064 216.024C300.488 216.024 304.064 219.6 304.064 224.024V385.992C304.064 390.416 300.488 393.992 296.064 393.992Z" fill="#CFD8B9"/>
<path d="M236.008 184.016C231.584 184.016 228.008 180.44 228.008 176.016V144.016C228.008 139.592 231.584 136.016 236.008 136.016C240.432 136.016 244.008 139.592 244.008 144.016V176.016C244.008 180.44 240.432 184.016 236.008 184.016Z" fill="#CFD8B9"/>
<path d="M276 184.016C271.576 184.016 268 180.44 268 176.016V144.016C268 139.592 271.576 136.016 276 136.016C280.424 136.016 284 139.592 284 144.016V176.016C284 180.44 280.424 184.016 276 184.016Z" fill="#CFD8B9"/>
<path d="M200.088 184.016C195.664 184.016 192.088 180.44 192.088 176.016V112.032C192.088 107.608 195.664 104.032 200.088 104.032C204.512 104.032 208.088 107.608 208.088 112.032V176.016C208.088 180.44 204.504 184.016 200.088 184.016Z" fill="#CFD8B9"/>
<path d="M312.056 184.016C307.632 184.016 304.056 180.44 304.056 176.016V112.032C304.056 107.608 307.632 104.032 312.056 104.032C316.48 104.032 320.056 107.608 320.056 112.032V176.016C320.056 180.44 316.48 184.016 312.056 184.016Z" fill="#CFD8B9"/>
<path d="M312.056 120.032H200.088C195.664 120.032 192.088 116.456 192.088 112.032C192.088 107.608 195.664 104.032 200.088 104.032H312.056C316.48 104.032 320.056 107.608 320.056 112.032C320.056 116.456 316.48 120.032 312.056 120.032Z" fill="#CFD8B9"/>
<path d="M232.072 120.032C227.648 120.032 224.072 116.456 224.072 112.032V72.0244C224.072 67.6004 227.648 64.0244 232.072 64.0244C236.496 64.0244 240.072 67.6004 240.072 72.0244V112.032C240.072 116.456 236.496 120.032 232.072 120.032Z" fill="#CFD8B9"/>
<path d="M280.072 120.032C275.648 120.032 272.072 116.456 272.072 112.032V72.0244C272.072 67.6004 275.648 64.0244 280.072 64.0244C284.496 64.0244 288.072 67.6004 288.072 72.0244V112.032C288.072 116.456 284.496 120.032 280.072 120.032Z" fill="#CFD8B9"/>
<path d="M280.072 80.0244H232.072C227.648 80.0244 224.072 76.4484 224.072 72.0244C224.072 67.6004 227.648 64.0244 232.072 64.0244H280.072C284.496 64.0244 288.072 67.6004 288.072 72.0244C288.072 76.4484 284.496 80.0244 280.072 80.0244Z" fill="#CFD8B9"/>
<path d="M256.072 80.024C251.648 80.024 248.072 76.448 248.072 72.024V40.04C248.072 35.616 251.648 32.04 256.072 32.04C260.496 32.04 264.072 35.616 264.072 40.04V72.024C264.072 76.448 260.496 80.024 256.072 80.024Z" fill="#CFD8B9"/>
<path d="M304 512H208C203.576 512 200 508.424 200 504V472.872C179.712 467.656 160.336 459.624 142.256 448.944L120.232 470.96C117.232 473.96 111.92 473.96 108.92 470.96L41.04 403.08C39.536 401.576 38.696 399.552 38.696 397.424C38.696 395.296 39.536 393.264 41.04 391.768L63.056 369.744C52.376 351.664 44.344 332.288 39.128 312H8C3.576 312 0 308.424 0 304V208C0 203.576 3.576 200 8 200H39.128C44.344 179.712 52.376 160.336 63.056 142.256L41.04 120.232C39.536 118.728 38.696 116.704 38.696 114.576C38.696 112.448 39.536 110.416 41.04 108.92L108.92 41.04C111.92 38.04 117.232 38.04 120.232 41.04L142.256 63.056C160.336 52.376 179.712 44.344 200 39.128V8C200 3.576 203.576 0 208 0H304C308.424 0 312 3.576 312 8V39.128C332.288 44.344 351.664 52.376 369.744 63.056L391.768 41.04C394.768 38.04 400.08 38.04 403.08 41.04L470.96 108.92C472.464 110.424 473.304 112.448 473.304 114.576C473.304 116.704 472.464 118.736 470.96 120.232L448.944 142.256C459.624 160.336 467.656 179.712 472.872 200H504C508.424 200 512 203.576 512 208V304C512 308.424 508.424 312 504 312H472.872C467.656 332.288 459.624 351.664 448.944 369.744L470.96 391.768C472.464 393.272 473.304 395.296 473.304 397.424C473.304 399.552 472.464 401.584 470.96 403.08L403.08 470.96C400.08 473.96 394.768 473.96 391.768 470.96L369.744 448.944C351.664 459.624 332.288 467.656 312 472.872V504C312 508.424 308.424 512 304 512ZM216 496H296V466.576C296 462.84 298.584 459.6 302.224 458.768C325.088 453.584 346.776 444.6 366.688 432.056C369.848 430.08 373.96 430.52 376.608 433.176L397.424 453.992L453.992 397.424L433.176 376.608C430.536 373.968 430.072 369.848 432.056 366.688C444.592 346.784 453.576 325.096 458.768 302.224C459.6 298.584 462.84 296 466.576 296H496V216H466.576C462.84 216 459.6 213.416 458.768 209.776C453.584 186.912 444.6 165.224 432.056 145.312C430.072 142.144 430.536 138.032 433.176 135.392L453.992 114.576L397.424 58.008L376.608 78.824C373.96 81.472 369.84 81.92 366.688 79.944C346.784 67.408 325.096 58.424 302.224 53.232C298.584 52.4 296 49.16 296 45.424V16H216V45.424C216 49.16 213.416 52.4 209.776 53.232C186.912 58.416 165.224 67.4 145.312 79.944C142.152 81.92 138.032 81.472 135.392 78.824L114.576 58.008L58.008 114.576L78.824 135.392C81.464 138.032 81.928 142.152 79.944 145.312C67.408 165.216 58.424 186.904 53.232 209.776C52.4 213.416 49.16 216 45.424 216H16V296H45.424C49.16 296 52.4 298.584 53.232 302.224C58.416 325.088 67.4 346.776 79.944 366.688C81.928 369.856 81.464 373.968 78.824 376.608L58.008 397.424L114.576 453.992L135.392 433.176C138.032 430.52 142.16 430.08 145.312 432.056C165.216 444.592 186.904 453.576 209.776 458.768C213.416 459.6 216 462.84 216 466.576V496Z" fill="#CFD8B9"/>
<path d="M256 400C176.6 400 112 335.4 112 256C112 199.536 145.28 148.008 196.784 124.72C200.808 122.888 205.552 124.688 207.368 128.712C209.184 132.736 207.4 137.48 203.376 139.296C157.584 160.008 128 205.816 128 256C128 326.576 185.424 384 256 384C326.576 384 384 326.576 384 256C384 205.832 354.44 160.048 308.696 139.336C304.664 137.512 302.88 132.776 304.704 128.752C306.528 124.736 311.256 122.928 315.288 124.76C366.752 148.056 400 199.568 400 256C400 335.4 335.4 400 256 400Z" fill="#CFD8B9"/>
<path d="M131.544 388.456C129.496 388.456 127.448 387.672 125.888 386.112C54.1441 314.368 54.1441 197.632 125.888 125.896C129.016 122.768 134.072 122.768 137.2 125.896C140.328 129.024 140.328 134.08 137.2 137.208C71.6961 202.712 71.6961 309.296 137.2 374.8C140.328 377.928 140.328 382.984 137.2 386.112C135.64 387.672 133.592 388.456 131.544 388.456Z" fill="#CFD8B9"/>
<path d="M380.456 388.456C378.408 388.456 376.36 387.672 374.8 386.112C371.672 382.984 371.672 377.928 374.8 374.8C440.304 309.296 440.304 202.712 374.8 137.208C371.672 134.08 371.672 129.024 374.8 125.896C377.928 122.768 382.984 122.768 386.112 125.896C457.856 197.64 457.856 314.376 386.112 386.112C384.544 387.672 382.504 388.456 380.456 388.456Z" fill="#CFD8B9"/>
</svg>
